<?xml version="1.0" encoding="utf-8" standalone="no"?>
<!DOCTYPE svg PUBLIC "-//W3C//DTD SVG 1.1//EN"
  "http://www.w3.org/Graphics/SVG/1.1/DTD/svg11.dtd">
<svg height="432pt" version="1.1" viewBox="0 0 432 432" width="432pt" xmlns="http://www.w3.org/2000/svg" xmlns:xlink="http://www.w3.org/1999/xlink">
 <metadata>
  <rdf:RDF xmlns:cc="http://creativecommons.org/ns#" xmlns:dc="http://purl.org/dc/elements/1.1/" xmlns:rdf="http://www.w3.org/1999/02/22-rdf-syntax-ns#">
   <cc:Work>
    <dc:type rdf:resource="http://purl.org/dc/dcmitype/StillImage"/>
    <dc:date>2025-05-30T12:52:22.200889</dc:date>
    <dc:format>image/svg+xml</dc:format>
    <dc:creator>
     <cc:Agent>
      <dc:title>Matplotlib v3.4.3, https://matplotlib.org/</dc:title>
     </cc:Agent>
    </dc:creator>
   </cc:Work>
  </rdf:RDF>
 </metadata>
 <defs>
  <style type="text/css">*{stroke-linecap:butt;stroke-linejoin:round;}</style>
 </defs>
 <g id="figure_1">
  <g id="patch_1">
   <path d="M 0 432 
L 432 432 
L 432 0 
L 0 0 
z
" style="fill:#ffffff;"/>
  </g>
  <g id="axes_1">
   <g id="patch_2">
    <path d="M 54 384.48 
L 388.8 384.48 
L 388.8 51.84 
L 54 51.84 
z
" style="fill:#ffffff;"/>
   </g>
   <g id="matplotlib.axis_1">
    <g id="xtick_1">
     <g id="line2d_1">
      <defs>
       <path d="M 0 0 
L 0 3.5 
" id="m246c1fe388" style="stroke:#000000;stroke-width:0.8;"/>
      </defs>
      <g>
       <use style="stroke:#000000;stroke-width:0.8;" x="69.218182" xlink:href="#m246c1fe388" y="384.48"/>
      </g>
     </g>
     <g id="text_1">
      <!-- −6 -->
      <g transform="translate(61.847088 399.078438)scale(0.1 -0.1)">
       <defs>
        <path d="M 678 2272 
L 4684 2272 
L 4684 1741 
L 678 1741 
L 678 2272 
z
" id="DejaVuSans-2212" transform="scale(0.015625)"/>
        <path d="M 2113 2584 
Q 1688 2584 1439 2293 
Q 1191 2003 1191 1497 
Q 1191 994 1439 701 
Q 1688 409 2113 409 
Q 2538 409 2786 701 
Q 3034 994 3034 1497 
Q 3034 2003 2786 2293 
Q 2538 2584 2113 2584 
z
M 3366 4563 
L 3366 3988 
Q 3128 4100 2886 4159 
Q 2644 4219 2406 4219 
Q 1781 4219 1451 3797 
Q 1122 3375 1075 2522 
Q 1259 2794 1537 2939 
Q 1816 3084 2150 3084 
Q 2853 3084 3261 2657 
Q 3669 2231 3669 1497 
Q 3669 778 3244 343 
Q 2819 -91 2113 -91 
Q 1303 -91 875 529 
Q 447 1150 447 2328 
Q 447 3434 972 4092 
Q 1497 4750 2381 4750 
Q 2619 4750 2861 4703 
Q 3103 4656 3366 4563 
z
" id="DejaVuSans-36" transform="scale(0.015625)"/>
       </defs>
       <use xlink:href="#DejaVuSans-2212"/>
       <use x="83.789062" xlink:href="#DejaVuSans-36"/>
      </g>
     </g>
    </g>
    <g id="xtick_2">
     <g id="line2d_2">
      <g>
       <use style="stroke:#000000;stroke-width:0.8;" x="119.945455" xlink:href="#m246c1fe388" y="384.48"/>
      </g>
     </g>
     <g id="text_2">
      <!-- −4 -->
      <g transform="translate(112.574361 399.078438)scale(0.1 -0.1)">
       <defs>
        <path d="M 2419 4116 
L 825 1625 
L 2419 1625 
L 2419 4116 
z
M 2253 4666 
L 3047 4666 
L 3047 1625 
L 3713 1625 
L 3713 1100 
L 3047 1100 
L 3047 0 
L 2419 0 
L 2419 1100 
L 313 1100 
L 313 1709 
L 2253 4666 
z
" id="DejaVuSans-34" transform="scale(0.015625)"/>
       </defs>
       <use xlink:href="#DejaVuSans-2212"/>
       <use x="83.789062" xlink:href="#DejaVuSans-34"/>
      </g>
     </g>
    </g>
    <g id="xtick_3">
     <g id="line2d_3">
      <g>
       <use style="stroke:#000000;stroke-width:0.8;" x="170.672727" xlink:href="#m246c1fe388" y="384.48"/>
      </g>
     </g>
     <g id="text_3">
      <!-- −2 -->
      <g transform="translate(163.301634 399.078438)scale(0.1 -0.1)">
       <defs>
        <path d="M 1228 531 
L 3431 531 
L 3431 0 
L 469 0 
L 469 531 
Q 828 903 1448 1529 
Q 2069 2156 2228 2338 
Q 2531 2678 2651 2914 
Q 2772 3150 2772 3378 
Q 2772 3750 2511 3984 
Q 2250 4219 1831 4219 
Q 1534 4219 1204 4116 
Q 875 4013 500 3803 
L 500 4441 
Q 881 4594 1212 4672 
Q 1544 4750 1819 4750 
Q 2544 4750 2975 4387 
Q 3406 4025 3406 3419 
Q 3406 3131 3298 2873 
Q 3191 2616 2906 2266 
Q 2828 2175 2409 1742 
Q 1991 1309 1228 531 
z
" id="DejaVuSans-32" transform="scale(0.015625)"/>
       </defs>
       <use xlink:href="#DejaVuSans-2212"/>
       <use x="83.789062" xlink:href="#DejaVuSans-32"/>
      </g>
     </g>
    </g>
    <g id="xtick_4">
     <g id="line2d_4">
      <g>
       <use style="stroke:#000000;stroke-width:0.8;" x="221.4" xlink:href="#m246c1fe388" y="384.48"/>
      </g>
     </g>
     <g id="text_4">
      <!-- 0 -->
      <g transform="translate(218.21875 399.078438)scale(0.1 -0.1)">
       <defs>
        <path d="M 2034 4250 
Q 1547 4250 1301 3770 
Q 1056 3291 1056 2328 
Q 1056 1369 1301 889 
Q 1547 409 2034 409 
Q 2525 409 2770 889 
Q 3016 1369 3016 2328 
Q 3016 3291 2770 3770 
Q 2525 4250 2034 4250 
z
M 2034 4750 
Q 2819 4750 3233 4129 
Q 3647 3509 3647 2328 
Q 3647 1150 3233 529 
Q 2819 -91 2034 -91 
Q 1250 -91 836 529 
Q 422 1150 422 2328 
Q 422 3509 836 4129 
Q 1250 4750 2034 4750 
z
" id="DejaVuSans-30" transform="scale(0.015625)"/>
       </defs>
       <use xlink:href="#DejaVuSans-30"/>
      </g>
     </g>
    </g>
    <g id="xtick_5">
     <g id="line2d_5">
      <g>
       <use style="stroke:#000000;stroke-width:0.8;" x="272.127273" xlink:href="#m246c1fe388" y="384.48"/>
      </g>
     </g>
     <g id="text_5">
      <!-- 2 -->
      <g transform="translate(268.946023 399.078438)scale(0.1 -0.1)">
       <use xlink:href="#DejaVuSans-32"/>
      </g>
     </g>
    </g>
    <g id="xtick_6">
     <g id="line2d_6">
      <g>
       <use style="stroke:#000000;stroke-width:0.8;" x="322.854545" xlink:href="#m246c1fe388" y="384.48"/>
      </g>
     </g>
     <g id="text_6">
      <!-- 4 -->
      <g transform="translate(319.673295 399.078438)scale(0.1 -0.1)">
       <use xlink:href="#DejaVuSans-34"/>
      </g>
     </g>
    </g>
    <g id="xtick_7">
     <g id="line2d_7">
      <g>
       <use style="stroke:#000000;stroke-width:0.8;" x="373.581818" xlink:href="#m246c1fe388" y="384.48"/>
      </g>
     </g>
     <g id="text_7">
      <!-- 6 -->
      <g transform="translate(370.400568 399.078438)scale(0.1 -0.1)">
       <use xlink:href="#DejaVuSans-36"/>
      </g>
     </g>
    </g>
    <g id="text_8">
     <!-- x -->
     <g transform="translate(216.960938 416.555781)scale(0.15 -0.15)">
      <defs>
       <path d="M 3513 3500 
L 2247 1797 
L 3578 0 
L 2900 0 
L 1881 1375 
L 863 0 
L 184 0 
L 1544 1831 
L 300 3500 
L 978 3500 
L 1906 2253 
L 2834 3500 
L 3513 3500 
z
" id="DejaVuSans-78" transform="scale(0.015625)"/>
      </defs>
      <use xlink:href="#DejaVuSans-78"/>
     </g>
    </g>
   </g>
   <g id="matplotlib.axis_2">
    <g id="ytick_1">
     <g id="line2d_8">
      <defs>
       <path d="M 0 0 
L -3.5 0 
" id="m6430d11a91" style="stroke:#000000;stroke-width:0.8;"/>
      </defs>
      <g>
       <use style="stroke:#000000;stroke-width:0.8;" x="54" xlink:href="#m6430d11a91" y="366.795305"/>
      </g>
     </g>
     <g id="text_9">
      <!-- −0.2 -->
      <g transform="translate(22.717187 370.594524)scale(0.1 -0.1)">
       <defs>
        <path d="M 684 794 
L 1344 794 
L 1344 0 
L 684 0 
L 684 794 
z
" id="DejaVuSans-2e" transform="scale(0.015625)"/>
       </defs>
       <use xlink:href="#DejaVuSans-2212"/>
       <use x="83.789062" xlink:href="#DejaVuSans-30"/>
       <use x="147.412109" xlink:href="#DejaVuSans-2e"/>
       <use x="179.199219" xlink:href="#DejaVuSans-32"/>
      </g>
     </g>
    </g>
    <g id="ytick_2">
     <g id="line2d_9">
      <g>
       <use style="stroke:#000000;stroke-width:0.8;" x="54" xlink:href="#m6430d11a91" y="298.265805"/>
      </g>
     </g>
     <g id="text_10">
      <!-- −0.1 -->
      <g transform="translate(22.717187 302.065023)scale(0.1 -0.1)">
       <defs>
        <path d="M 794 531 
L 1825 531 
L 1825 4091 
L 703 3866 
L 703 4441 
L 1819 4666 
L 2450 4666 
L 2450 531 
L 3481 531 
L 3481 0 
L 794 0 
L 794 531 
z
" id="DejaVuSans-31" transform="scale(0.015625)"/>
       </defs>
       <use xlink:href="#DejaVuSans-2212"/>
       <use x="83.789062" xlink:href="#DejaVuSans-30"/>
       <use x="147.412109" xlink:href="#DejaVuSans-2e"/>
       <use x="179.199219" xlink:href="#DejaVuSans-31"/>
      </g>
     </g>
    </g>
    <g id="ytick_3">
     <g id="line2d_10">
      <g>
       <use style="stroke:#000000;stroke-width:0.8;" x="54" xlink:href="#m6430d11a91" y="229.736304"/>
      </g>
     </g>
     <g id="text_11">
      <!-- 0.0 -->
      <g transform="translate(31.096875 233.535523)scale(0.1 -0.1)">
       <use xlink:href="#DejaVuSans-30"/>
       <use x="63.623047" xlink:href="#DejaVuSans-2e"/>
       <use x="95.410156" xlink:href="#DejaVuSans-30"/>
      </g>
     </g>
    </g>
    <g id="ytick_4">
     <g id="line2d_11">
      <g>
       <use style="stroke:#000000;stroke-width:0.8;" x="54" xlink:href="#m6430d11a91" y="161.206804"/>
      </g>
     </g>
     <g id="text_12">
      <!-- 0.1 -->
      <g transform="translate(31.096875 165.006023)scale(0.1 -0.1)">
       <use xlink:href="#DejaVuSans-30"/>
       <use x="63.623047" xlink:href="#DejaVuSans-2e"/>
       <use x="95.410156" xlink:href="#DejaVuSans-31"/>
      </g>
     </g>
    </g>
    <g id="ytick_5">
     <g id="line2d_12">
      <g>
       <use style="stroke:#000000;stroke-width:0.8;" x="54" xlink:href="#m6430d11a91" y="92.677304"/>
      </g>
     </g>
     <g id="text_13">
      <!-- 0.2 -->
      <g transform="translate(31.096875 96.476523)scale(0.1 -0.1)">
       <use xlink:href="#DejaVuSans-30"/>
       <use x="63.623047" xlink:href="#DejaVuSans-2e"/>
       <use x="95.410156" xlink:href="#DejaVuSans-32"/>
      </g>
     </g>
    </g>
    <g id="text_14">
     <!-- ψ (x) -->
     <g transform="translate(15.597656 235.782656)rotate(-90)scale(0.15 -0.15)">
      <defs>
       <path d="M 1816 -78 
Q 1094 38 759 341 
Q 350 713 350 1472 
L 350 3500 
L 931 3500 
L 931 1494 
Q 931 922 1197 684 
Q 1428 478 1816 434 
L 1816 3500 
L 2388 3500 
L 2388 438 
Q 2797 481 3006 688 
Q 3272 950 3272 1497 
L 3272 3500 
L 3853 3500 
L 3853 1475 
Q 3853 688 3444 344 
Q 3075 34 2388 -75 
L 2388 -1331 
L 1816 -1331 
L 1816 -78 
z
" id="DejaVuSans-3c8" transform="scale(0.015625)"/>
       <path id="DejaVuSans-20" transform="scale(0.015625)"/>
       <path d="M 1984 4856 
Q 1566 4138 1362 3434 
Q 1159 2731 1159 2009 
Q 1159 1288 1364 580 
Q 1569 -128 1984 -844 
L 1484 -844 
Q 1016 -109 783 600 
Q 550 1309 550 2009 
Q 550 2706 781 3412 
Q 1013 4119 1484 4856 
L 1984 4856 
z
" id="DejaVuSans-28" transform="scale(0.015625)"/>
       <path d="M 513 4856 
L 1013 4856 
Q 1481 4119 1714 3412 
Q 1947 2706 1947 2009 
Q 1947 1309 1714 600 
Q 1481 -109 1013 -844 
L 513 -844 
Q 928 -128 1133 580 
Q 1338 1288 1338 2009 
Q 1338 2731 1133 3434 
Q 928 4138 513 4856 
z
" id="DejaVuSans-29" transform="scale(0.015625)"/>
      </defs>
      <use xlink:href="#DejaVuSans-3c8"/>
      <use x="65.966797" xlink:href="#DejaVuSans-20"/>
      <use x="97.753906" xlink:href="#DejaVuSans-28"/>
      <use x="136.767578" xlink:href="#DejaVuSans-78"/>
      <use x="195.947266" xlink:href="#DejaVuSans-29"/>
     </g>
    </g>
   </g>
   <g id="line2d_13">
    <path clip-path="url(#pd38bb3cfe2)" d="M 69.218182 229.736303 
L 71.754545 229.7363 
L 74.290909 229.736297 
L 76.827273 229.73629 
L 79.363636 229.736279 
L 81.9 229.736261 
L 84.436364 229.736229 
L 86.972727 229.736175 
L 89.509091 229.736086 
L 92.045455 229.735939 
L 94.581818 229.735698 
L 97.118182 229.73531 
L 99.654545 229.734689 
L 102.190909 229.733706 
L 104.727273 229.732168 
L 107.263636 229.729784 
L 109.8 229.726129 
L 112.336364 229.720583 
L 114.872727 229.712257 
L 117.409091 229.699887 
L 119.945455 229.681702 
L 122.481818 229.655252 
L 125.018182 229.617187 
L 127.554545 229.562988 
L 130.090909 229.486637 
L 132.627273 229.380232 
L 135.163636 229.233532 
L 137.7 229.033457 
L 140.236364 228.763542 
L 142.772727 228.403367 
L 145.309091 227.928009 
L 147.845455 227.307538 
L 150.381818 226.506628 
L 152.918182 225.484344 
L 155.454545 224.194178 
L 157.990909 222.584415 
L 160.527273 220.598914 
L 163.063636 218.178358 
L 165.6 215.262046 
L 168.136364 211.790245 
L 170.672727 207.707088 
L 173.209091 202.963975 
L 175.745455 197.52336 
L 178.281818 191.362766 
L 180.818182 184.478819 
L 183.354545 176.891032 
L 185.890909 168.645057 
L 188.427273 159.815089 
L 190.963636 150.505137 
L 193.5 140.848897 
L 196.036364 131.00804 
L 198.572727 121.168804 
L 201.109091 111.536915 
L 203.645455 102.330953 
L 206.181818 93.774431 
L 208.718182 86.086965 
L 211.254545 79.475005 
L 213.790909 74.122667 
L 216.327273 70.183233 
L 218.863636 67.771862 
L 221.4 66.96 
L 223.936364 67.771862 
L 226.472727 70.183233 
L 229.009091 74.122667 
L 231.545455 79.475005 
L 234.081818 86.086965 
L 236.618182 93.774431 
L 239.154545 102.330953 
L 241.690909 111.536915 
L 244.227273 121.168804 
L 246.763636 131.00804 
L 249.3 140.848897 
L 251.836364 150.505137 
L 254.372727 159.815089 
L 256.909091 168.645057 
L 259.445455 176.891032 
L 261.981818 184.478819 
L 264.518182 191.362766 
L 267.054545 197.52336 
L 269.590909 202.963975 
L 272.127273 207.707088 
L 274.663636 211.790245 
L 277.2 215.262046 
L 279.736364 218.178358 
L 282.272727 220.598914 
L 284.809091 222.584415 
L 287.345455 224.194178 
L 289.881818 225.484344 
L 292.418182 226.506628 
L 294.954545 227.307538 
L 297.490909 227.928009 
L 300.027273 228.403367 
L 302.563636 228.763542 
L 305.1 229.033457 
L 307.636364 229.233532 
L 310.172727 229.380232 
L 312.709091 229.486637 
L 315.245455 229.562988 
L 317.781818 229.617187 
L 320.318182 229.655252 
L 322.854545 229.681702 
L 325.390909 229.699887 
L 327.927273 229.712257 
L 330.463636 229.720583 
L 333 229.726129 
L 335.536364 229.729784 
L 338.072727 229.732168 
L 340.609091 229.733706 
L 343.145455 229.734689 
L 345.681818 229.73531 
L 348.218182 229.735698 
L 350.754545 229.735939 
L 353.290909 229.736086 
L 355.827273 229.736175 
L 358.363636 229.736229 
L 360.9 229.736261 
L 363.436364 229.736279 
L 365.972727 229.73629 
L 368.509091 229.736297 
L 371.045455 229.7363 
L 373.581818 229.736303 
" style="fill:none;stroke:#1f77b4;stroke-linecap:square;stroke-width:1.5;"/>
   </g>
   <g id="line2d_14">
    <path clip-path="url(#pd38bb3cfe2)" d="M 69.218182 229.736291 
L 71.754545 229.736271 
L 74.290909 229.736241 
L 76.827273 229.73619 
L 79.363636 229.736106 
L 81.9 229.735963 
L 84.436364 229.735726 
L 86.972727 229.735335 
L 89.509091 229.734697 
L 92.045455 229.733665 
L 94.581818 229.732017 
L 97.118182 229.72941 
L 99.654545 229.725335 
L 102.190909 229.719032 
L 104.727273 229.709391 
L 107.263636 229.694805 
L 109.8 229.672982 
L 112.336364 229.640695 
L 114.872727 229.59346 
L 117.409091 229.525133 
L 119.945455 229.427414 
L 122.481818 229.289252 
L 125.018182 229.096153 
L 127.554545 228.829398 
L 130.090909 228.465201 
L 132.627273 227.973837 
L 135.163636 227.318823 
L 137.7 226.456212 
L 140.236364 225.334134 
L 142.772727 223.892708 
L 145.309091 222.064482 
L 147.845455 219.775577 
L 150.381818 216.947676 
L 152.918182 213.501024 
L 155.454545 209.358536 
L 157.990909 204.451025 
L 160.527273 198.723526 
L 163.063636 192.142507 
L 165.6 184.703684 
L 168.136364 176.439983 
L 170.672727 167.429056 
L 173.209091 157.799683 
L 175.745455 147.736277 
L 178.281818 137.480719 
L 180.818182 127.330835 
L 183.354545 117.634913 
L 185.890909 108.781957 
L 188.427273 101.187627 
L 190.963636 95.276212 
L 193.5 91.459349 
L 196.036364 90.112609 
L 198.572727 91.55138 
L 201.109091 96.007743 
L 203.645455 103.610125 
L 206.181818 114.367489 
L 208.718182 128.159599 
L 211.254545 144.734532 
L 213.790909 163.714096 
L 216.327273 184.607221 
L 218.863636 206.830732 
L 221.4 229.736304 
L 223.936364 252.641877 
L 226.472727 274.865387 
L 229.009091 295.758513 
L 231.545455 314.738077 
L 234.081818 331.313009 
L 236.618182 345.10512 
L 239.154545 355.862484 
L 241.690909 363.464866 
L 244.227273 367.921229 
L 246.763636 369.36 
L 249.3 368.01326 
L 251.836364 364.196397 
L 254.372727 358.284982 
L 256.909091 350.690652 
L 259.445455 341.837696 
L 261.981818 332.141774 
L 264.518182 321.99189 
L 267.054545 311.736332 
L 269.590909 301.672925 
L 272.127273 292.043553 
L 274.663636 283.032626 
L 277.2 274.768925 
L 279.736364 267.330102 
L 282.272727 260.749083 
L 284.809091 255.021583 
L 287.345455 250.114073 
L 289.881818 245.971584 
L 292.418182 242.524933 
L 294.954545 239.697032 
L 297.490909 237.408126 
L 300.027273 235.579901 
L 302.563636 234.138475 
L 305.1 233.016396 
L 307.636364 232.153786 
L 310.172727 231.498772 
L 312.709091 231.007408 
L 315.245455 230.643211 
L 317.781818 230.376456 
L 320.318182 230.183357 
L 322.854545 230.045195 
L 325.390909 229.947476 
L 327.927273 229.879149 
L 330.463636 229.831913 
L 333 229.799627 
L 335.536364 229.777804 
L 338.072727 229.763218 
L 340.609091 229.753577 
L 343.145455 229.747274 
L 345.681818 229.743199 
L 348.218182 229.740592 
L 350.754545 229.738944 
L 353.290909 229.737912 
L 355.827273 229.737274 
L 358.363636 229.736882 
L 360.9 229.736645 
L 363.436364 229.736503 
L 365.972727 229.736418 
L 368.509091 229.736368 
L 371.045455 229.736338 
L 373.581818 229.736318 
" style="fill:none;stroke:#ff7f0e;stroke-linecap:square;stroke-width:1.5;"/>
   </g>
   <g id="line2d_15">
    <path clip-path="url(#pd38bb3cfe2)" d="M 69.218182 229.736224 
L 71.754545 229.736112 
L 74.290909 229.735942 
L 76.827273 229.735665 
L 79.363636 229.73521 
L 81.9 229.73446 
L 84.436364 229.733236 
L 86.972727 229.731259 
L 89.509091 229.728098 
L 92.045455 229.723101 
L 94.581818 229.715291 
L 97.118182 229.703224 
L 99.654545 229.68479 
L 102.190909 229.656958 
L 104.727273 229.615421 
L 107.263636 229.554161 
L 109.8 229.464876 
L 112.336364 229.336297 
L 114.872727 229.153361 
L 117.409091 228.896258 
L 119.945455 228.539366 
L 122.481818 228.050143 
L 125.018182 227.38801 
L 127.554545 226.503389 
L 130.090909 225.336999 
L 132.627273 223.819635 
L 135.163636 221.87264 
L 137.7 219.409336 
L 140.236364 216.337661 
L 142.772727 212.564259 
L 145.309091 208.000205 
L 147.845455 202.568442 
L 150.381818 196.212859 
L 152.918182 188.908756 
L 155.454545 180.674204 
L 157.990909 171.581544 
L 160.527273 161.768048 
L 163.063636 151.444519 
L 165.6 140.900501 
L 168.136364 130.504704 
L 170.672727 120.699401 
L 173.209091 111.987812 
L 175.745455 104.913973 
L 178.281818 100.035214 
L 180.818182 97.888113 
L 183.354545 98.949641 
L 185.890909 103.595973 
L 188.427273 112.062156 
L 190.963636 124.406239 
L 193.5 140.481643 
L 196.036364 159.92127 
L 198.572727 182.136245 
L 201.109091 206.331098 
L 203.645455 231.535859 
L 206.181818 256.654008 
L 208.718182 280.523583 
L 211.254545 301.987345 
L 213.790909 319.966737 
L 216.327273 333.53371 
L 218.863636 341.974402 
L 221.4 344.839148 
L 223.936364 341.974402 
L 226.472727 333.53371 
L 229.009091 319.966737 
L 231.545455 301.987345 
L 234.081818 280.523583 
L 236.618182 256.654008 
L 239.154545 231.535859 
L 241.690909 206.331098 
L 244.227273 182.136245 
L 246.763636 159.92127 
L 249.3 140.481643 
L 251.836364 124.406239 
L 254.372727 112.062156 
L 256.909091 103.595973 
L 259.445455 98.949641 
L 261.981818 97.888113 
L 264.518182 100.035214 
L 267.054545 104.913973 
L 269.590909 111.987812 
L 272.127273 120.699401 
L 274.663636 130.504704 
L 277.2 140.900501 
L 279.736364 151.444519 
L 282.272727 161.768048 
L 284.809091 171.581544 
L 287.345455 180.674204 
L 289.881818 188.908756 
L 292.418182 196.212859 
L 294.954545 202.568442 
L 297.490909 208.000205 
L 300.027273 212.564259 
L 302.563636 216.337661 
L 305.1 219.409336 
L 307.636364 221.87264 
L 310.172727 223.819635 
L 312.709091 225.336999 
L 315.245455 226.503389 
L 317.781818 227.38801 
L 320.318182 228.050143 
L 322.854545 228.539366 
L 325.390909 228.896258 
L 327.927273 229.153361 
L 330.463636 229.336297 
L 333 229.464876 
L 335.536364 229.554161 
L 338.072727 229.615421 
L 340.609091 229.656958 
L 343.145455 229.68479 
L 345.681818 229.703224 
L 348.218182 229.715291 
L 350.754545 229.723101 
L 353.290909 229.728098 
L 355.827273 229.731259 
L 358.363636 229.733236 
L 360.9 229.73446 
L 363.436364 229.73521 
L 365.972727 229.735665 
L 368.509091 229.735942 
L 371.045455 229.736112 
L 373.581818 229.736224 
" style="fill:none;stroke:#2ca02c;stroke-linecap:square;stroke-width:1.5;"/>
   </g>
   <g id="line2d_16">
    <path clip-path="url(#pd38bb3cfe2)" d="M 69.218182 229.735929 
L 71.754545 229.735415 
L 74.290909 229.734647 
L 76.827273 229.733429 
L 79.363636 229.731465 
L 81.9 229.728303 
L 84.436364 229.72325 
L 86.972727 229.715261 
L 89.509091 229.702773 
L 92.045455 229.683477 
L 94.581818 229.654017 
L 97.118182 229.60958 
L 99.654545 229.543365 
L 102.190909 229.445911 
L 104.727273 229.304262 
L 107.263636 229.100963 
L 109.8 228.812902 
L 112.336364 228.410015 
L 114.872727 227.853933 
L 117.409091 227.096671 
L 119.945455 226.079503 
L 122.481818 224.732262 
L 125.018182 222.973307 
L 127.554545 220.710495 
L 130.090909 217.843497 
L 132.627273 214.26783 
L 135.163636 209.880895 
L 137.7 204.590253 
L 140.236364 198.324174 
L 142.772727 191.044262 
L 145.309091 182.759635 
L 147.845455 173.541804 
L 150.381818 163.538952 
L 152.918182 152.988013 
L 155.454545 142.222608 
L 157.990909 131.674788 
L 160.527273 121.868616 
L 163.063636 113.403923 
L 165.6 106.929263 
L 168.136364 103.104008 
L 170.672727 102.55073 
L 173.209091 105.800371 
L 175.745455 113.234099 
L 178.281818 125.026923 
L 180.818182 141.099044 
L 183.354545 161.081189 
L 185.890909 184.299824 
L 188.427273 209.78696 
L 190.963636 236.317342 
L 193.5 262.473264 
L 196.036364 286.734262 
L 198.572727 307.585905 
L 201.109091 323.639152 
L 203.645455 333.749662 
L 206.181818 337.12545 
L 208.718182 333.411455 
L 211.254545 322.74122 
L 213.790909 305.748657 
L 216.327273 283.536727 
L 218.863636 257.604221 
L 221.4 229.736304 
L 223.936364 201.868388 
L 226.472727 175.935882 
L 229.009091 153.723951 
L 231.545455 136.731389 
L 234.081818 126.061154 
L 236.618182 122.347159 
L 239.154545 125.722946 
L 241.690909 135.833457 
L 244.227273 151.886704 
L 246.763636 172.738347 
L 249.3 196.999345 
L 251.836364 223.155267 
L 254.372727 249.685649 
L 256.909091 275.172785 
L 259.445455 298.39142 
L 261.981818 318.373565 
L 264.518182 334.445686 
L 267.054545 346.23851 
L 269.590909 353.672238 
L 272.127273 356.921879 
L 274.663636 356.368601 
L 277.2 352.543346 
L 279.736364 346.068686 
L 282.272727 337.603993 
L 284.809091 327.797821 
L 287.345455 317.250001 
L 289.881818 306.484595 
L 292.418182 295.933657 
L 294.954545 285.930805 
L 297.490909 276.712974 
L 300.027273 268.428347 
L 302.563636 261.148434 
L 305.1 254.882356 
L 307.636364 249.591714 
L 310.172727 245.204778 
L 312.709091 241.629111 
L 315.245455 238.762114 
L 317.781818 236.499302 
L 320.318182 234.740347 
L 322.854545 233.393106 
L 325.390909 232.375938 
L 327.927273 231.618676 
L 330.463636 231.062594 
L 333 230.659707 
L 335.536364 230.371646 
L 338.072727 230.168347 
L 340.609091 230.026698 
L 343.145455 229.929244 
L 345.681818 229.863029 
L 348.218182 229.818592 
L 350.754545 229.789132 
L 353.290909 229.769836 
L 355.827273 229.757347 
L 358.363636 229.749359 
L 360.9 229.744306 
L 363.436364 229.741144 
L 365.972727 229.73918 
L 368.509091 229.737962 
L 371.045455 229.737194 
L 373.581818 229.73668 
" style="fill:none;stroke:#d62728;stroke-linecap:square;stroke-width:1.5;"/>
   </g>
   <g id="patch_3">
    <path d="M 54 384.48 
L 54 51.84 
" style="fill:none;stroke:#000000;stroke-linecap:square;stroke-linejoin:miter;stroke-width:0.8;"/>
   </g>
   <g id="patch_4">
    <path d="M 388.8 384.48 
L 388.8 51.84 
" style="fill:none;stroke:#000000;stroke-linecap:square;stroke-linejoin:miter;stroke-width:0.8;"/>
   </g>
   <g id="patch_5">
    <path d="M 54 384.48 
L 388.8 384.48 
" style="fill:none;stroke:#000000;stroke-linecap:square;stroke-linejoin:miter;stroke-width:0.8;"/>
   </g>
   <g id="patch_6">
    <path d="M 54 51.84 
L 388.8 51.84 
" style="fill:none;stroke:#000000;stroke-linecap:square;stroke-linejoin:miter;stroke-width:0.8;"/>
   </g>
   <g id="text_15">
    <!-- Eigenvectors (States 1-4) at t=0 -->
    <g transform="translate(124.137188 45.84)scale(0.12 -0.12)">
     <defs>
      <path d="M 628 4666 
L 3578 4666 
L 3578 4134 
L 1259 4134 
L 1259 2753 
L 3481 2753 
L 3481 2222 
L 1259 2222 
L 1259 531 
L 3634 531 
L 3634 0 
L 628 0 
L 628 4666 
z
" id="DejaVuSans-45" transform="scale(0.015625)"/>
      <path d="M 603 3500 
L 1178 3500 
L 1178 0 
L 603 0 
L 603 3500 
z
M 603 4863 
L 1178 4863 
L 1178 4134 
L 603 4134 
L 603 4863 
z
" id="DejaVuSans-69" transform="scale(0.015625)"/>
      <path d="M 2906 1791 
Q 2906 2416 2648 2759 
Q 2391 3103 1925 3103 
Q 1463 3103 1205 2759 
Q 947 2416 947 1791 
Q 947 1169 1205 825 
Q 1463 481 1925 481 
Q 2391 481 2648 825 
Q 2906 1169 2906 1791 
z
M 3481 434 
Q 3481 -459 3084 -895 
Q 2688 -1331 1869 -1331 
Q 1566 -1331 1297 -1286 
Q 1028 -1241 775 -1147 
L 775 -588 
Q 1028 -725 1275 -790 
Q 1522 -856 1778 -856 
Q 2344 -856 2625 -561 
Q 2906 -266 2906 331 
L 2906 616 
Q 2728 306 2450 153 
Q 2172 0 1784 0 
Q 1141 0 747 490 
Q 353 981 353 1791 
Q 353 2603 747 3093 
Q 1141 3584 1784 3584 
Q 2172 3584 2450 3431 
Q 2728 3278 2906 2969 
L 2906 3500 
L 3481 3500 
L 3481 434 
z
" id="DejaVuSans-67" transform="scale(0.015625)"/>
      <path d="M 3597 1894 
L 3597 1613 
L 953 1613 
Q 991 1019 1311 708 
Q 1631 397 2203 397 
Q 2534 397 2845 478 
Q 3156 559 3463 722 
L 3463 178 
Q 3153 47 2828 -22 
Q 2503 -91 2169 -91 
Q 1331 -91 842 396 
Q 353 884 353 1716 
Q 353 2575 817 3079 
Q 1281 3584 2069 3584 
Q 2775 3584 3186 3129 
Q 3597 2675 3597 1894 
z
M 3022 2063 
Q 3016 2534 2758 2815 
Q 2500 3097 2075 3097 
Q 1594 3097 1305 2825 
Q 1016 2553 972 2059 
L 3022 2063 
z
" id="DejaVuSans-65" transform="scale(0.015625)"/>
      <path d="M 3513 2113 
L 3513 0 
L 2938 0 
L 2938 2094 
Q 2938 2591 2744 2837 
Q 2550 3084 2163 3084 
Q 1697 3084 1428 2787 
Q 1159 2491 1159 1978 
L 1159 0 
L 581 0 
L 581 3500 
L 1159 3500 
L 1159 2956 
Q 1366 3272 1645 3428 
Q 1925 3584 2291 3584 
Q 2894 3584 3203 3211 
Q 3513 2838 3513 2113 
z
" id="DejaVuSans-6e" transform="scale(0.015625)"/>
      <path d="M 191 3500 
L 800 3500 
L 1894 563 
L 2988 3500 
L 3597 3500 
L 2284 0 
L 1503 0 
L 191 3500 
z
" id="DejaVuSans-76" transform="scale(0.015625)"/>
      <path d="M 3122 3366 
L 3122 2828 
Q 2878 2963 2633 3030 
Q 2388 3097 2138 3097 
Q 1578 3097 1268 2742 
Q 959 2388 959 1747 
Q 959 1106 1268 751 
Q 1578 397 2138 397 
Q 2388 397 2633 464 
Q 2878 531 3122 666 
L 3122 134 
Q 2881 22 2623 -34 
Q 2366 -91 2075 -91 
Q 1284 -91 818 406 
Q 353 903 353 1747 
Q 353 2603 823 3093 
Q 1294 3584 2113 3584 
Q 2378 3584 2631 3529 
Q 2884 3475 3122 3366 
z
" id="DejaVuSans-63" transform="scale(0.015625)"/>
      <path d="M 1172 4494 
L 1172 3500 
L 2356 3500 
L 2356 3053 
L 1172 3053 
L 1172 1153 
Q 1172 725 1289 603 
Q 1406 481 1766 481 
L 2356 481 
L 2356 0 
L 1766 0 
Q 1100 0 847 248 
Q 594 497 594 1153 
L 594 3053 
L 172 3053 
L 172 3500 
L 594 3500 
L 594 4494 
L 1172 4494 
z
" id="DejaVuSans-74" transform="scale(0.015625)"/>
      <path d="M 1959 3097 
Q 1497 3097 1228 2736 
Q 959 2375 959 1747 
Q 959 1119 1226 758 
Q 1494 397 1959 397 
Q 2419 397 2687 759 
Q 2956 1122 2956 1747 
Q 2956 2369 2687 2733 
Q 2419 3097 1959 3097 
z
M 1959 3584 
Q 2709 3584 3137 3096 
Q 3566 2609 3566 1747 
Q 3566 888 3137 398 
Q 2709 -91 1959 -91 
Q 1206 -91 779 398 
Q 353 888 353 1747 
Q 353 2609 779 3096 
Q 1206 3584 1959 3584 
z
" id="DejaVuSans-6f" transform="scale(0.015625)"/>
      <path d="M 2631 2963 
Q 2534 3019 2420 3045 
Q 2306 3072 2169 3072 
Q 1681 3072 1420 2755 
Q 1159 2438 1159 1844 
L 1159 0 
L 581 0 
L 581 3500 
L 1159 3500 
L 1159 2956 
Q 1341 3275 1631 3429 
Q 1922 3584 2338 3584 
Q 2397 3584 2469 3576 
Q 2541 3569 2628 3553 
L 2631 2963 
z
" id="DejaVuSans-72" transform="scale(0.015625)"/>
      <path d="M 2834 3397 
L 2834 2853 
Q 2591 2978 2328 3040 
Q 2066 3103 1784 3103 
Q 1356 3103 1142 2972 
Q 928 2841 928 2578 
Q 928 2378 1081 2264 
Q 1234 2150 1697 2047 
L 1894 2003 
Q 2506 1872 2764 1633 
Q 3022 1394 3022 966 
Q 3022 478 2636 193 
Q 2250 -91 1575 -91 
Q 1294 -91 989 -36 
Q 684 19 347 128 
L 347 722 
Q 666 556 975 473 
Q 1284 391 1588 391 
Q 1994 391 2212 530 
Q 2431 669 2431 922 
Q 2431 1156 2273 1281 
Q 2116 1406 1581 1522 
L 1381 1569 
Q 847 1681 609 1914 
Q 372 2147 372 2553 
Q 372 3047 722 3315 
Q 1072 3584 1716 3584 
Q 2034 3584 2315 3537 
Q 2597 3491 2834 3397 
z
" id="DejaVuSans-73" transform="scale(0.015625)"/>
      <path d="M 3425 4513 
L 3425 3897 
Q 3066 4069 2747 4153 
Q 2428 4238 2131 4238 
Q 1616 4238 1336 4038 
Q 1056 3838 1056 3469 
Q 1056 3159 1242 3001 
Q 1428 2844 1947 2747 
L 2328 2669 
Q 3034 2534 3370 2195 
Q 3706 1856 3706 1288 
Q 3706 609 3251 259 
Q 2797 -91 1919 -91 
Q 1588 -91 1214 -16 
Q 841 59 441 206 
L 441 856 
Q 825 641 1194 531 
Q 1563 422 1919 422 
Q 2459 422 2753 634 
Q 3047 847 3047 1241 
Q 3047 1584 2836 1778 
Q 2625 1972 2144 2069 
L 1759 2144 
Q 1053 2284 737 2584 
Q 422 2884 422 3419 
Q 422 4038 858 4394 
Q 1294 4750 2059 4750 
Q 2388 4750 2728 4690 
Q 3069 4631 3425 4513 
z
" id="DejaVuSans-53" transform="scale(0.015625)"/>
      <path d="M 2194 1759 
Q 1497 1759 1228 1600 
Q 959 1441 959 1056 
Q 959 750 1161 570 
Q 1363 391 1709 391 
Q 2188 391 2477 730 
Q 2766 1069 2766 1631 
L 2766 1759 
L 2194 1759 
z
M 3341 1997 
L 3341 0 
L 2766 0 
L 2766 531 
Q 2569 213 2275 61 
Q 1981 -91 1556 -91 
Q 1019 -91 701 211 
Q 384 513 384 1019 
Q 384 1609 779 1909 
Q 1175 2209 1959 2209 
L 2766 2209 
L 2766 2266 
Q 2766 2663 2505 2880 
Q 2244 3097 1772 3097 
Q 1472 3097 1187 3025 
Q 903 2953 641 2809 
L 641 3341 
Q 956 3463 1253 3523 
Q 1550 3584 1831 3584 
Q 2591 3584 2966 3190 
Q 3341 2797 3341 1997 
z
" id="DejaVuSans-61" transform="scale(0.015625)"/>
      <path d="M 313 2009 
L 1997 2009 
L 1997 1497 
L 313 1497 
L 313 2009 
z
" id="DejaVuSans-2d" transform="scale(0.015625)"/>
      <path d="M 678 2906 
L 4684 2906 
L 4684 2381 
L 678 2381 
L 678 2906 
z
M 678 1631 
L 4684 1631 
L 4684 1100 
L 678 1100 
L 678 1631 
z
" id="DejaVuSans-3d" transform="scale(0.015625)"/>
     </defs>
     <use xlink:href="#DejaVuSans-45"/>
     <use x="63.183594" xlink:href="#DejaVuSans-69"/>
     <use x="90.966797" xlink:href="#DejaVuSans-67"/>
     <use x="154.443359" xlink:href="#DejaVuSans-65"/>
     <use x="215.966797" xlink:href="#DejaVuSans-6e"/>
     <use x="279.345703" xlink:href="#DejaVuSans-76"/>
     <use x="338.525391" xlink:href="#DejaVuSans-65"/>
     <use x="400.048828" xlink:href="#DejaVuSans-63"/>
     <use x="455.029297" xlink:href="#DejaVuSans-74"/>
     <use x="494.238281" xlink:href="#DejaVuSans-6f"/>
     <use x="555.419922" xlink:href="#DejaVuSans-72"/>
     <use x="596.533203" xlink:href="#DejaVuSans-73"/>
     <use x="648.632812" xlink:href="#DejaVuSans-20"/>
     <use x="680.419922" xlink:href="#DejaVuSans-28"/>
     <use x="719.433594" xlink:href="#DejaVuSans-53"/>
     <use x="782.910156" xlink:href="#DejaVuSans-74"/>
     <use x="822.119141" xlink:href="#DejaVuSans-61"/>
     <use x="883.398438" xlink:href="#DejaVuSans-74"/>
     <use x="922.607422" xlink:href="#DejaVuSans-65"/>
     <use x="984.130859" xlink:href="#DejaVuSans-73"/>
     <use x="1036.230469" xlink:href="#DejaVuSans-20"/>
     <use x="1068.017578" xlink:href="#DejaVuSans-31"/>
     <use x="1131.640625" xlink:href="#DejaVuSans-2d"/>
     <use x="1167.724609" xlink:href="#DejaVuSans-34"/>
     <use x="1231.347656" xlink:href="#DejaVuSans-29"/>
     <use x="1270.361328" xlink:href="#DejaVuSans-20"/>
     <use x="1302.148438" xlink:href="#DejaVuSans-61"/>
     <use x="1363.427734" xlink:href="#DejaVuSans-74"/>
     <use x="1402.636719" xlink:href="#DejaVuSans-20"/>
     <use x="1434.423828" xlink:href="#DejaVuSans-74"/>
     <use x="1473.632812" xlink:href="#DejaVuSans-3d"/>
     <use x="1557.421875" xlink:href="#DejaVuSans-30"/>
    </g>
   </g>
   <g id="legend_1">
    <g id="patch_7">
     <path d="M 314.498438 118.5525 
L 381.8 118.5525 
Q 383.8 118.5525 383.8 116.5525 
L 383.8 58.84 
Q 383.8 56.84 381.8 56.84 
L 314.498438 56.84 
Q 312.498438 56.84 312.498438 58.84 
L 312.498438 116.5525 
Q 312.498438 118.5525 314.498438 118.5525 
z
" style="fill:#ffffff;opacity:0.8;stroke:#cccccc;stroke-linejoin:miter;"/>
    </g>
    <g id="line2d_17">
     <path d="M 316.498438 64.938438 
L 336.498438 64.938438 
" style="fill:none;stroke:#1f77b4;stroke-linecap:square;stroke-width:1.5;"/>
    </g>
    <g id="line2d_18"/>
    <g id="text_16">
     <!-- state-1 -->
     <g transform="translate(344.498438 68.438438)scale(0.1 -0.1)">
      <use xlink:href="#DejaVuSans-73"/>
      <use x="52.099609" xlink:href="#DejaVuSans-74"/>
      <use x="91.308594" xlink:href="#DejaVuSans-61"/>
      <use x="152.587891" xlink:href="#DejaVuSans-74"/>
      <use x="191.796875" xlink:href="#DejaVuSans-65"/>
      <use x="253.320312" xlink:href="#DejaVuSans-2d"/>
      <use x="289.404297" xlink:href="#DejaVuSans-31"/>
     </g>
    </g>
    <g id="line2d_19">
     <path d="M 316.498438 79.616563 
L 336.498438 79.616563 
" style="fill:none;stroke:#ff7f0e;stroke-linecap:square;stroke-width:1.5;"/>
    </g>
    <g id="line2d_20"/>
    <g id="text_17">
     <!-- state-2 -->
     <g transform="translate(344.498438 83.116563)scale(0.1 -0.1)">
      <use xlink:href="#DejaVuSans-73"/>
      <use x="52.099609" xlink:href="#DejaVuSans-74"/>
      <use x="91.308594" xlink:href="#DejaVuSans-61"/>
      <use x="152.587891" xlink:href="#DejaVuSans-74"/>
      <use x="191.796875" xlink:href="#DejaVuSans-65"/>
      <use x="253.320312" xlink:href="#DejaVuSans-2d"/>
      <use x="289.404297" xlink:href="#DejaVuSans-32"/>
     </g>
    </g>
    <g id="line2d_21">
     <path d="M 316.498438 94.294688 
L 336.498438 94.294688 
" style="fill:none;stroke:#2ca02c;stroke-linecap:square;stroke-width:1.5;"/>
    </g>
    <g id="line2d_22"/>
    <g id="text_18">
     <!-- state-3 -->
     <g transform="translate(344.498438 97.794688)scale(0.1 -0.1)">
      <defs>
       <path d="M 2597 2516 
Q 3050 2419 3304 2112 
Q 3559 1806 3559 1356 
Q 3559 666 3084 287 
Q 2609 -91 1734 -91 
Q 1441 -91 1130 -33 
Q 819 25 488 141 
L 488 750 
Q 750 597 1062 519 
Q 1375 441 1716 441 
Q 2309 441 2620 675 
Q 2931 909 2931 1356 
Q 2931 1769 2642 2001 
Q 2353 2234 1838 2234 
L 1294 2234 
L 1294 2753 
L 1863 2753 
Q 2328 2753 2575 2939 
Q 2822 3125 2822 3475 
Q 2822 3834 2567 4026 
Q 2313 4219 1838 4219 
Q 1578 4219 1281 4162 
Q 984 4106 628 3988 
L 628 4550 
Q 988 4650 1302 4700 
Q 1616 4750 1894 4750 
Q 2613 4750 3031 4423 
Q 3450 4097 3450 3541 
Q 3450 3153 3228 2886 
Q 3006 2619 2597 2516 
z
" id="DejaVuSans-33" transform="scale(0.015625)"/>
      </defs>
      <use xlink:href="#DejaVuSans-73"/>
      <use x="52.099609" xlink:href="#DejaVuSans-74"/>
      <use x="91.308594" xlink:href="#DejaVuSans-61"/>
      <use x="152.587891" xlink:href="#DejaVuSans-74"/>
      <use x="191.796875" xlink:href="#DejaVuSans-65"/>
      <use x="253.320312" xlink:href="#DejaVuSans-2d"/>
      <use x="289.404297" xlink:href="#DejaVuSans-33"/>
     </g>
    </g>
    <g id="line2d_23">
     <path d="M 316.498438 108.972813 
L 336.498438 108.972813 
" style="fill:none;stroke:#d62728;stroke-linecap:square;stroke-width:1.5;"/>
    </g>
    <g id="line2d_24"/>
    <g id="text_19">
     <!-- state-4 -->
     <g transform="translate(344.498438 112.472813)scale(0.1 -0.1)">
      <use xlink:href="#DejaVuSans-73"/>
      <use x="52.099609" xlink:href="#DejaVuSans-74"/>
      <use x="91.308594" xlink:href="#DejaVuSans-61"/>
      <use x="152.587891" xlink:href="#DejaVuSans-74"/>
      <use x="191.796875" xlink:href="#DejaVuSans-65"/>
      <use x="253.320312" xlink:href="#DejaVuSans-2d"/>
      <use x="289.404297" xlink:href="#DejaVuSans-34"/>
     </g>
    </g>
   </g>
  </g>
 </g>
 <defs>
  <clipPath id="pd38bb3cfe2">
   <rect height="332.64" width="334.8" x="54" y="51.84"/>
  </clipPath>
 </defs>
</svg>
