<?xml version="1.0" encoding="utf-8" standalone="no"?>
<!DOCTYPE svg PUBLIC "-//W3C//DTD SVG 1.1//EN"
  "http://www.w3.org/Graphics/SVG/1.1/DTD/svg11.dtd">
<svg height="432pt" version="1.1" viewBox="0 0 432 432" width="432pt" xmlns="http://www.w3.org/2000/svg" xmlns:xlink="http://www.w3.org/1999/xlink">
 <metadata>
  <rdf:RDF xmlns:cc="http://creativecommons.org/ns#" xmlns:dc="http://purl.org/dc/elements/1.1/" xmlns:rdf="http://www.w3.org/1999/02/22-rdf-syntax-ns#">
   <cc:Work>
    <dc:type rdf:resource="http://purl.org/dc/dcmitype/StillImage"/>
    <dc:date>2025-05-30T11:22:52.118580</dc:date>
    <dc:format>image/svg+xml</dc:format>
    <dc:creator>
     <cc:Agent>
      <dc:title>Matplotlib v3.4.3, https://matplotlib.org/</dc:title>
     </cc:Agent>
    </dc:creator>
   </cc:Work>
  </rdf:RDF>
 </metadata>
 <defs>
  <style type="text/css">*{stroke-linecap:butt;stroke-linejoin:round;}</style>
 </defs>
 <g id="figure_1">
  <g id="patch_1">
   <path d="M 0 432 
L 432 432 
L 432 0 
L 0 0 
z
" style="fill:#ffffff;"/>
  </g>
  <g id="axes_1">
   <g id="patch_2">
    <path d="M 54 384.48 
L 388.8 384.48 
L 388.8 51.84 
L 54 51.84 
z
" style="fill:#ffffff;"/>
   </g>
   <g id="matplotlib.axis_1">
    <g id="xtick_1">
     <g id="line2d_1">
      <defs>
       <path d="M 0 0 
L 0 3.5 
" id="m49a63b082a" style="stroke:#000000;stroke-width:0.8;"/>
      </defs>
      <g>
       <use style="stroke:#000000;stroke-width:0.8;" x="69.218182" xlink:href="#m49a63b082a" y="384.48"/>
      </g>
     </g>
     <g id="text_1">
      <!-- −6 -->
      <g transform="translate(61.847088 399.078438)scale(0.1 -0.1)">
       <defs>
        <path d="M 678 2272 
L 4684 2272 
L 4684 1741 
L 678 1741 
L 678 2272 
z
" id="DejaVuSans-2212" transform="scale(0.015625)"/>
        <path d="M 2113 2584 
Q 1688 2584 1439 2293 
Q 1191 2003 1191 1497 
Q 1191 994 1439 701 
Q 1688 409 2113 409 
Q 2538 409 2786 701 
Q 3034 994 3034 1497 
Q 3034 2003 2786 2293 
Q 2538 2584 2113 2584 
z
M 3366 4563 
L 3366 3988 
Q 3128 4100 2886 4159 
Q 2644 4219 2406 4219 
Q 1781 4219 1451 3797 
Q 1122 3375 1075 2522 
Q 1259 2794 1537 2939 
Q 1816 3084 2150 3084 
Q 2853 3084 3261 2657 
Q 3669 2231 3669 1497 
Q 3669 778 3244 343 
Q 2819 -91 2113 -91 
Q 1303 -91 875 529 
Q 447 1150 447 2328 
Q 447 3434 972 4092 
Q 1497 4750 2381 4750 
Q 2619 4750 2861 4703 
Q 3103 4656 3366 4563 
z
" id="DejaVuSans-36" transform="scale(0.015625)"/>
       </defs>
       <use xlink:href="#DejaVuSans-2212"/>
       <use x="83.789062" xlink:href="#DejaVuSans-36"/>
      </g>
     </g>
    </g>
    <g id="xtick_2">
     <g id="line2d_2">
      <g>
       <use style="stroke:#000000;stroke-width:0.8;" x="119.945455" xlink:href="#m49a63b082a" y="384.48"/>
      </g>
     </g>
     <g id="text_2">
      <!-- −4 -->
      <g transform="translate(112.574361 399.078438)scale(0.1 -0.1)">
       <defs>
        <path d="M 2419 4116 
L 825 1625 
L 2419 1625 
L 2419 4116 
z
M 2253 4666 
L 3047 4666 
L 3047 1625 
L 3713 1625 
L 3713 1100 
L 3047 1100 
L 3047 0 
L 2419 0 
L 2419 1100 
L 313 1100 
L 313 1709 
L 2253 4666 
z
" id="DejaVuSans-34" transform="scale(0.015625)"/>
       </defs>
       <use xlink:href="#DejaVuSans-2212"/>
       <use x="83.789062" xlink:href="#DejaVuSans-34"/>
      </g>
     </g>
    </g>
    <g id="xtick_3">
     <g id="line2d_3">
      <g>
       <use style="stroke:#000000;stroke-width:0.8;" x="170.672727" xlink:href="#m49a63b082a" y="384.48"/>
      </g>
     </g>
     <g id="text_3">
      <!-- −2 -->
      <g transform="translate(163.301634 399.078438)scale(0.1 -0.1)">
       <defs>
        <path d="M 1228 531 
L 3431 531 
L 3431 0 
L 469 0 
L 469 531 
Q 828 903 1448 1529 
Q 2069 2156 2228 2338 
Q 2531 2678 2651 2914 
Q 2772 3150 2772 3378 
Q 2772 3750 2511 3984 
Q 2250 4219 1831 4219 
Q 1534 4219 1204 4116 
Q 875 4013 500 3803 
L 500 4441 
Q 881 4594 1212 4672 
Q 1544 4750 1819 4750 
Q 2544 4750 2975 4387 
Q 3406 4025 3406 3419 
Q 3406 3131 3298 2873 
Q 3191 2616 2906 2266 
Q 2828 2175 2409 1742 
Q 1991 1309 1228 531 
z
" id="DejaVuSans-32" transform="scale(0.015625)"/>
       </defs>
       <use xlink:href="#DejaVuSans-2212"/>
       <use x="83.789062" xlink:href="#DejaVuSans-32"/>
      </g>
     </g>
    </g>
    <g id="xtick_4">
     <g id="line2d_4">
      <g>
       <use style="stroke:#000000;stroke-width:0.8;" x="221.4" xlink:href="#m49a63b082a" y="384.48"/>
      </g>
     </g>
     <g id="text_4">
      <!-- 0 -->
      <g transform="translate(218.21875 399.078438)scale(0.1 -0.1)">
       <defs>
        <path d="M 2034 4250 
Q 1547 4250 1301 3770 
Q 1056 3291 1056 2328 
Q 1056 1369 1301 889 
Q 1547 409 2034 409 
Q 2525 409 2770 889 
Q 3016 1369 3016 2328 
Q 3016 3291 2770 3770 
Q 2525 4250 2034 4250 
z
M 2034 4750 
Q 2819 4750 3233 4129 
Q 3647 3509 3647 2328 
Q 3647 1150 3233 529 
Q 2819 -91 2034 -91 
Q 1250 -91 836 529 
Q 422 1150 422 2328 
Q 422 3509 836 4129 
Q 1250 4750 2034 4750 
z
" id="DejaVuSans-30" transform="scale(0.015625)"/>
       </defs>
       <use xlink:href="#DejaVuSans-30"/>
      </g>
     </g>
    </g>
    <g id="xtick_5">
     <g id="line2d_5">
      <g>
       <use style="stroke:#000000;stroke-width:0.8;" x="272.127273" xlink:href="#m49a63b082a" y="384.48"/>
      </g>
     </g>
     <g id="text_5">
      <!-- 2 -->
      <g transform="translate(268.946023 399.078438)scale(0.1 -0.1)">
       <use xlink:href="#DejaVuSans-32"/>
      </g>
     </g>
    </g>
    <g id="xtick_6">
     <g id="line2d_6">
      <g>
       <use style="stroke:#000000;stroke-width:0.8;" x="322.854545" xlink:href="#m49a63b082a" y="384.48"/>
      </g>
     </g>
     <g id="text_6">
      <!-- 4 -->
      <g transform="translate(319.673295 399.078438)scale(0.1 -0.1)">
       <use xlink:href="#DejaVuSans-34"/>
      </g>
     </g>
    </g>
    <g id="xtick_7">
     <g id="line2d_7">
      <g>
       <use style="stroke:#000000;stroke-width:0.8;" x="373.581818" xlink:href="#m49a63b082a" y="384.48"/>
      </g>
     </g>
     <g id="text_7">
      <!-- 6 -->
      <g transform="translate(370.400568 399.078438)scale(0.1 -0.1)">
       <use xlink:href="#DejaVuSans-36"/>
      </g>
     </g>
    </g>
    <g id="text_8">
     <!-- x -->
     <g transform="translate(216.960938 416.555781)scale(0.15 -0.15)">
      <defs>
       <path d="M 3513 3500 
L 2247 1797 
L 3578 0 
L 2900 0 
L 1881 1375 
L 863 0 
L 184 0 
L 1544 1831 
L 300 3500 
L 978 3500 
L 1906 2253 
L 2834 3500 
L 3513 3500 
z
" id="DejaVuSans-78" transform="scale(0.015625)"/>
      </defs>
      <use xlink:href="#DejaVuSans-78"/>
     </g>
    </g>
   </g>
   <g id="matplotlib.axis_2">
    <g id="ytick_1">
     <g id="line2d_8">
      <defs>
       <path d="M 0 0 
L -3.5 0 
" id="m98b74cadae" style="stroke:#000000;stroke-width:0.8;"/>
      </defs>
      <g>
       <use style="stroke:#000000;stroke-width:0.8;" x="54" xlink:href="#m98b74cadae" y="364.942164"/>
      </g>
     </g>
     <g id="text_9">
      <!-- −0.2 -->
      <g transform="translate(22.717187 368.741382)scale(0.1 -0.1)">
       <defs>
        <path d="M 684 794 
L 1344 794 
L 1344 0 
L 684 0 
L 684 794 
z
" id="DejaVuSans-2e" transform="scale(0.015625)"/>
       </defs>
       <use xlink:href="#DejaVuSans-2212"/>
       <use x="83.789062" xlink:href="#DejaVuSans-30"/>
       <use x="147.412109" xlink:href="#DejaVuSans-2e"/>
       <use x="179.199219" xlink:href="#DejaVuSans-32"/>
      </g>
     </g>
    </g>
    <g id="ytick_2">
     <g id="line2d_9">
      <g>
       <use style="stroke:#000000;stroke-width:0.8;" x="54" xlink:href="#m98b74cadae" y="291.551082"/>
      </g>
     </g>
     <g id="text_10">
      <!-- −0.1 -->
      <g transform="translate(22.717187 295.350301)scale(0.1 -0.1)">
       <defs>
        <path d="M 794 531 
L 1825 531 
L 1825 4091 
L 703 3866 
L 703 4441 
L 1819 4666 
L 2450 4666 
L 2450 531 
L 3481 531 
L 3481 0 
L 794 0 
L 794 531 
z
" id="DejaVuSans-31" transform="scale(0.015625)"/>
       </defs>
       <use xlink:href="#DejaVuSans-2212"/>
       <use x="83.789062" xlink:href="#DejaVuSans-30"/>
       <use x="147.412109" xlink:href="#DejaVuSans-2e"/>
       <use x="179.199219" xlink:href="#DejaVuSans-31"/>
      </g>
     </g>
    </g>
    <g id="ytick_3">
     <g id="line2d_10">
      <g>
       <use style="stroke:#000000;stroke-width:0.8;" x="54" xlink:href="#m98b74cadae" y="218.16"/>
      </g>
     </g>
     <g id="text_11">
      <!-- 0.0 -->
      <g transform="translate(31.096875 221.959219)scale(0.1 -0.1)">
       <use xlink:href="#DejaVuSans-30"/>
       <use x="63.623047" xlink:href="#DejaVuSans-2e"/>
       <use x="95.410156" xlink:href="#DejaVuSans-30"/>
      </g>
     </g>
    </g>
    <g id="ytick_4">
     <g id="line2d_11">
      <g>
       <use style="stroke:#000000;stroke-width:0.8;" x="54" xlink:href="#m98b74cadae" y="144.768918"/>
      </g>
     </g>
     <g id="text_12">
      <!-- 0.1 -->
      <g transform="translate(31.096875 148.568137)scale(0.1 -0.1)">
       <use xlink:href="#DejaVuSans-30"/>
       <use x="63.623047" xlink:href="#DejaVuSans-2e"/>
       <use x="95.410156" xlink:href="#DejaVuSans-31"/>
      </g>
     </g>
    </g>
    <g id="ytick_5">
     <g id="line2d_12">
      <g>
       <use style="stroke:#000000;stroke-width:0.8;" x="54" xlink:href="#m98b74cadae" y="71.377836"/>
      </g>
     </g>
     <g id="text_13">
      <!-- 0.2 -->
      <g transform="translate(31.096875 75.177055)scale(0.1 -0.1)">
       <use xlink:href="#DejaVuSans-30"/>
       <use x="63.623047" xlink:href="#DejaVuSans-2e"/>
       <use x="95.410156" xlink:href="#DejaVuSans-32"/>
      </g>
     </g>
    </g>
    <g id="text_14">
     <!-- ψ (x) -->
     <g transform="translate(15.597656 235.782656)rotate(-90)scale(0.15 -0.15)">
      <defs>
       <path d="M 1816 -78 
Q 1094 38 759 341 
Q 350 713 350 1472 
L 350 3500 
L 931 3500 
L 931 1494 
Q 931 922 1197 684 
Q 1428 478 1816 434 
L 1816 3500 
L 2388 3500 
L 2388 438 
Q 2797 481 3006 688 
Q 3272 950 3272 1497 
L 3272 3500 
L 3853 3500 
L 3853 1475 
Q 3853 688 3444 344 
Q 3075 34 2388 -75 
L 2388 -1331 
L 1816 -1331 
L 1816 -78 
z
" id="DejaVuSans-3c8" transform="scale(0.015625)"/>
       <path id="DejaVuSans-20" transform="scale(0.015625)"/>
       <path d="M 1984 4856 
Q 1566 4138 1362 3434 
Q 1159 2731 1159 2009 
Q 1159 1288 1364 580 
Q 1569 -128 1984 -844 
L 1484 -844 
Q 1016 -109 783 600 
Q 550 1309 550 2009 
Q 550 2706 781 3412 
Q 1013 4119 1484 4856 
L 1984 4856 
z
" id="DejaVuSans-28" transform="scale(0.015625)"/>
       <path d="M 513 4856 
L 1013 4856 
Q 1481 4119 1714 3412 
Q 1947 2706 1947 2009 
Q 1947 1309 1714 600 
Q 1481 -109 1013 -844 
L 513 -844 
Q 928 -128 1133 580 
Q 1338 1288 1338 2009 
Q 1338 2731 1133 3434 
Q 928 4138 513 4856 
z
" id="DejaVuSans-29" transform="scale(0.015625)"/>
      </defs>
      <use xlink:href="#DejaVuSans-3c8"/>
      <use x="65.966797" xlink:href="#DejaVuSans-20"/>
      <use x="97.753906" xlink:href="#DejaVuSans-28"/>
      <use x="136.767578" xlink:href="#DejaVuSans-78"/>
      <use x="195.947266" xlink:href="#DejaVuSans-29"/>
     </g>
    </g>
   </g>
   <g id="line2d_13">
    <path clip-path="url(#p8d4ea5da45)" d="M 69.218182 218.160029 
L 71.754545 218.16007 
L 74.290909 218.160134 
L 76.827273 218.160238 
L 79.363636 218.160413 
L 81.9 218.160704 
L 84.436364 218.161186 
L 86.972727 218.161975 
L 89.509091 218.163253 
L 92.045455 218.165304 
L 94.581818 218.168555 
L 97.118182 218.173654 
L 99.654545 218.181563 
L 102.190909 218.193695 
L 104.727273 218.212095 
L 107.263636 218.239687 
L 109.8 218.280599 
L 112.336364 218.340568 
L 114.872727 218.427466 
L 117.409091 218.551929 
L 119.945455 218.728122 
L 122.481818 218.974616 
L 125.018182 219.315369 
L 127.554545 219.780778 
L 130.090909 220.408729 
L 132.627273 221.245573 
L 135.163636 222.346887 
L 137.7 223.777879 
L 140.236364 225.61324 
L 142.772727 227.936242 
L 145.309091 230.83685 
L 147.845455 234.408651 
L 150.381818 238.744422 
L 152.918182 243.930221 
L 155.454545 250.038031 
L 157.990909 257.117066 
L 160.527273 265.18407 
L 163.063636 274.213111 
L 165.6 284.125555 
L 168.136364 294.781114 
L 170.672727 305.970966 
L 173.209091 317.414036 
L 175.745455 328.757476 
L 178.281818 339.582268 
L 180.818182 349.414579 
L 183.354545 357.743154 
L 185.890909 364.042636 
L 188.427273 367.802441 
L 190.963636 368.561164 
L 193.5 365.947962 
L 196.036364 359.735237 
L 198.572727 349.909367 
L 201.109091 336.761883 
L 203.645455 320.982953 
L 206.181818 303.701897 
L 208.718182 286.394321 
L 211.254545 270.616341 
L 213.790909 257.649025 
L 216.327273 248.246847 
L 218.863636 242.645078 
L 221.4 240.796184 
L 223.936364 242.645078 
L 226.472727 248.246847 
L 229.009091 257.649025 
L 231.545455 270.616341 
L 234.081818 286.394321 
L 236.618182 303.701897 
L 239.154545 320.982953 
L 241.690909 336.761883 
L 244.227273 349.909367 
L 246.763636 359.735237 
L 249.3 365.947962 
L 251.836364 368.561164 
L 254.372727 367.802441 
L 256.909091 364.042636 
L 259.445455 357.743154 
L 261.981818 349.414579 
L 264.518182 339.582268 
L 267.054545 328.757476 
L 269.590909 317.414036 
L 272.127273 305.970966 
L 274.663636 294.781114 
L 277.2 284.125555 
L 279.736364 274.213111 
L 282.272727 265.18407 
L 284.809091 257.117066 
L 287.345455 250.038031 
L 289.881818 243.930221 
L 292.418182 238.744422 
L 294.954545 234.408651 
L 297.490909 230.83685 
L 300.027273 227.936242 
L 302.563636 225.61324 
L 305.1 223.777879 
L 307.636364 222.346887 
L 310.172727 221.245573 
L 312.709091 220.408729 
L 315.245455 219.780778 
L 317.781818 219.315369 
L 320.318182 218.974616 
L 322.854545 218.728122 
L 325.390909 218.551929 
L 327.927273 218.427466 
L 330.463636 218.340568 
L 333 218.280599 
L 335.536364 218.239687 
L 338.072727 218.212095 
L 340.609091 218.193695 
L 343.145455 218.181563 
L 345.681818 218.173654 
L 348.218182 218.168555 
L 350.754545 218.165304 
L 353.290909 218.163253 
L 355.827273 218.161975 
L 358.363636 218.161186 
L 360.9 218.160704 
L 363.436364 218.160413 
L 365.972727 218.160238 
L 368.509091 218.160134 
L 371.045455 218.16007 
L 373.581818 218.160029 
" style="fill:none;stroke:#1f77b4;stroke-linecap:square;stroke-width:1.5;"/>
   </g>
   <g id="line2d_14">
    <path clip-path="url(#p8d4ea5da45)" d="M 69.218182 218.160031 
L 71.754545 218.160076 
L 74.290909 218.160144 
L 76.827273 218.160256 
L 79.363636 218.160443 
L 81.9 218.160754 
L 84.436364 218.16127 
L 86.972727 218.162113 
L 89.509091 218.163479 
L 92.045455 218.165667 
L 94.581818 218.169135 
L 97.118182 218.174569 
L 99.654545 218.182992 
L 102.190909 218.195899 
L 104.727273 218.215459 
L 107.263636 218.244767 
L 109.8 218.288181 
L 112.336364 218.35176 
L 114.872727 218.443799 
L 117.409091 218.575495 
L 119.945455 218.761737 
L 122.481818 219.022011 
L 125.018182 219.381418 
L 127.554545 219.87174 
L 130.090909 220.532517 
L 132.627273 221.412008 
L 135.163636 222.567941 
L 137.7 224.067849 
L 140.236364 225.988838 
L 142.772727 228.416535 
L 145.309091 231.443009 
L 147.845455 235.163447 
L 150.381818 239.671418 
L 152.918182 245.052629 
L 155.454545 251.377185 
L 157.990909 258.690539 
L 160.527273 267.003449 
L 163.063636 276.28152 
L 165.6 286.435052 
L 168.136364 297.310128 
L 170.672727 308.682007 
L 173.209091 320.25192 
L 175.745455 331.648349 
L 178.281818 342.433693 
L 180.818182 352.116928 
L 183.354545 360.172478 
L 185.890909 366.065096 
L 188.427273 369.280273 
L 190.963636 369.36 
L 193.5 365.945143 
L 196.036364 358.828436 
L 198.572727 348.024127 
L 201.109091 333.855208 
L 203.645455 317.037663 
L 206.181818 298.703658 
L 208.718182 280.281874 
L 211.254545 263.196876 
L 213.790909 248.47302 
L 216.327273 236.435561 
L 218.863636 226.660996 
L 221.4 218.16 
L 223.936364 209.659004 
L 226.472727 199.884439 
L 229.009091 187.84698 
L 231.545455 173.123124 
L 234.081818 156.038126 
L 236.618182 137.616342 
L 239.154545 119.282337 
L 241.690909 102.464792 
L 244.227273 88.295873 
L 246.763636 77.491564 
L 249.3 70.374857 
L 251.836364 66.96 
L 254.372727 67.039727 
L 256.909091 70.254904 
L 259.445455 76.147522 
L 261.981818 84.203072 
L 264.518182 93.886307 
L 267.054545 104.671651 
L 269.590909 116.06808 
L 272.127273 127.637993 
L 274.663636 139.009872 
L 277.2 149.884948 
L 279.736364 160.03848 
L 282.272727 169.316551 
L 284.809091 177.629461 
L 287.345455 184.942815 
L 289.881818 191.267371 
L 292.418182 196.648582 
L 294.954545 201.156553 
L 297.490909 204.876991 
L 300.027273 207.903465 
L 302.563636 210.331162 
L 305.1 212.252151 
L 307.636364 213.752059 
L 310.172727 214.907992 
L 312.709091 215.787483 
L 315.245455 216.44826 
L 317.781818 216.938582 
L 320.318182 217.297989 
L 322.854545 217.558263 
L 325.390909 217.744505 
L 327.927273 217.876201 
L 330.463636 217.96824 
L 333 218.031819 
L 335.536364 218.075233 
L 338.072727 218.104541 
L 340.609091 218.124101 
L 343.145455 218.137008 
L 345.681818 218.145431 
L 348.218182 218.150865 
L 350.754545 218.154333 
L 353.290909 218.156521 
L 355.827273 218.157887 
L 358.363636 218.15873 
L 360.9 218.159246 
L 363.436364 218.159557 
L 365.972727 218.159744 
L 368.509091 218.159856 
L 371.045455 218.159924 
L 373.581818 218.159969 
" style="fill:none;stroke:#ff7f0e;stroke-linecap:square;stroke-width:1.5;"/>
   </g>
   <g id="line2d_15">
    <path clip-path="url(#p8d4ea5da45)" d="M 69.218182 218.159283 
L 71.754545 218.158308 
L 74.290909 218.156864 
L 76.827273 218.154595 
L 79.363636 218.15097 
L 81.9 218.145185 
L 84.436364 218.136025 
L 86.972727 218.121675 
L 89.509091 218.099452 
L 92.045455 218.065446 
L 94.581818 218.01404 
L 97.118182 217.937289 
L 99.654545 217.824125 
L 102.190909 217.659381 
L 104.727273 217.422614 
L 107.263636 217.086756 
L 109.8 216.616621 
L 112.336364 215.967353 
L 114.872727 215.082964 
L 117.409091 213.895133 
L 119.945455 212.322557 
L 122.481818 210.271168 
L 125.018182 207.635618 
L 127.554545 204.302451 
L 130.090909 200.155375 
L 132.627273 195.082994 
L 135.163636 188.9892 
L 137.7 181.806207 
L 140.236364 173.509896 
L 142.772727 164.136706 
L 145.309091 153.800885 
L 147.845455 142.710395 
L 150.381818 131.179365 
L 152.918182 119.63467 
L 155.454545 108.614116 
L 157.990909 98.753927 
L 160.527273 90.763784 
L 163.063636 85.388624 
L 165.6 83.357739 
L 168.136364 85.323318 
L 170.672727 91.792348 
L 173.209091 103.057489 
L 175.745455 119.133908 
L 178.281818 139.709883 
L 180.818182 164.118948 
L 183.354545 191.340401 
L 185.890909 220.03295 
L 188.427273 248.603462 
L 190.963636 275.309744 
L 193.5 298.394271 
L 196.036364 316.24644 
L 198.572727 327.594118 
L 201.109091 331.724453 
L 203.645455 328.713378 
L 206.181818 319.590734 
L 208.718182 306.3101 
L 211.254545 291.413479 
L 213.790909 277.446513 
L 216.327273 266.393817 
L 218.863636 259.433718 
L 221.4 257.072889 
L 223.936364 259.433718 
L 226.472727 266.393817 
L 229.009091 277.446513 
L 231.545455 291.413479 
L 234.081818 306.3101 
L 236.618182 319.590734 
L 239.154545 328.713378 
L 241.690909 331.724453 
L 244.227273 327.594118 
L 246.763636 316.24644 
L 249.3 298.394271 
L 251.836364 275.309744 
L 254.372727 248.603462 
L 256.909091 220.03295 
L 259.445455 191.340401 
L 261.981818 164.118948 
L 264.518182 139.709883 
L 267.054545 119.133908 
L 269.590909 103.057489 
L 272.127273 91.792348 
L 274.663636 85.323318 
L 277.2 83.357739 
L 279.736364 85.388624 
L 282.272727 90.763784 
L 284.809091 98.753927 
L 287.345455 108.614116 
L 289.881818 119.63467 
L 292.418182 131.179365 
L 294.954545 142.710395 
L 297.490909 153.800885 
L 300.027273 164.136706 
L 302.563636 173.509896 
L 305.1 181.806207 
L 307.636364 188.9892 
L 310.172727 195.082994 
L 312.709091 200.155375 
L 315.245455 204.302451 
L 317.781818 207.635618 
L 320.318182 210.271168 
L 322.854545 212.322557 
L 325.390909 213.895133 
L 327.927273 215.082964 
L 330.463636 215.967353 
L 333 216.616621 
L 335.536364 217.086756 
L 338.072727 217.422614 
L 340.609091 217.659381 
L 343.145455 217.824125 
L 345.681818 217.937289 
L 348.218182 218.01404 
L 350.754545 218.065446 
L 353.290909 218.099452 
L 355.827273 218.121675 
L 358.363636 218.136025 
L 360.9 218.145185 
L 363.436364 218.15097 
L 365.972727 218.154595 
L 368.509091 218.156864 
L 371.045455 218.158308 
L 373.581818 218.159283 
" style="fill:none;stroke:#2ca02c;stroke-linecap:square;stroke-width:1.5;"/>
   </g>
   <g id="line2d_16">
    <path clip-path="url(#p8d4ea5da45)" d="M 69.218182 218.159175 
L 71.754545 218.158055 
L 74.290909 218.156399 
L 76.827273 218.153803 
L 79.363636 218.149664 
L 81.9 218.14307 
L 84.436364 218.132652 
L 86.972727 218.116363 
L 89.509091 218.09119 
L 92.045455 218.052751 
L 94.581818 217.994772 
L 97.118182 217.908402 
L 99.654545 217.781352 
L 102.190909 217.596839 
L 104.727273 217.332324 
L 107.263636 216.95808 
L 109.8 216.435626 
L 112.336364 215.716137 
L 114.872727 214.738979 
L 117.409091 213.430596 
L 119.945455 211.704037 
L 122.481818 209.459483 
L 125.018182 206.586214 
L 127.554545 202.966423 
L 130.090909 198.481334 
L 132.627273 193.01994 
L 135.163636 186.490518 
L 137.7 178.834843 
L 140.236364 170.044609 
L 142.772727 160.179172 
L 145.309091 149.383203 
L 147.845455 137.902356 
L 150.381818 126.094637 
L 152.918182 114.434877 
L 155.454545 103.509723 
L 157.990909 94.000852 
L 160.527273 86.654829 
L 163.063636 82.239167 
L 165.6 81.485639 
L 168.136364 85.023637 
L 170.672727 93.308284 
L 173.209091 106.54967 
L 175.745455 124.650936 
L 178.281818 147.163483 
L 180.818182 173.267319 
L 183.354545 201.783114 
L 185.890909 231.22009 
L 188.427273 259.860597 
L 190.963636 285.878836 
L 193.5 307.488967 
L 196.036364 323.118339 
L 198.572727 331.604044 
L 201.109091 332.408374 
L 203.645455 325.825034 
L 206.181818 313.09399 
L 208.718182 296.291 
L 211.254545 277.894787 
L 213.790909 260.115244 
L 216.327273 244.27595 
L 218.863636 230.555597 
L 221.4 218.16 
L 223.936364 205.764403 
L 226.472727 192.04405 
L 229.009091 176.204756 
L 231.545455 158.425213 
L 234.081818 140.029 
L 236.618182 123.22601 
L 239.154545 110.494966 
L 241.690909 103.911626 
L 244.227273 104.715956 
L 246.763636 113.201661 
L 249.3 128.831033 
L 251.836364 150.441164 
L 254.372727 176.459403 
L 256.909091 205.09991 
L 259.445455 234.536886 
L 261.981818 263.052681 
L 264.518182 289.156517 
L 267.054545 311.669064 
L 269.590909 329.77033 
L 272.127273 343.011716 
L 274.663636 351.296363 
L 277.2 354.834361 
L 279.736364 354.080833 
L 282.272727 349.665171 
L 284.809091 342.319148 
L 287.345455 332.810277 
L 289.881818 321.885123 
L 292.418182 310.225363 
L 294.954545 298.417644 
L 297.490909 286.936797 
L 300.027273 276.140828 
L 302.563636 266.275391 
L 305.1 257.485157 
L 307.636364 249.829482 
L 310.172727 243.30006 
L 312.709091 237.838666 
L 315.245455 233.353577 
L 317.781818 229.733786 
L 320.318182 226.860517 
L 322.854545 224.615963 
L 325.390909 222.889404 
L 327.927273 221.581021 
L 330.463636 220.603863 
L 333 219.884374 
L 335.536364 219.36192 
L 338.072727 218.987676 
L 340.609091 218.723161 
L 343.145455 218.538648 
L 345.681818 218.411598 
L 348.218182 218.325228 
L 350.754545 218.267249 
L 353.290909 218.22881 
L 355.827273 218.203637 
L 358.363636 218.187348 
L 360.9 218.17693 
L 363.436364 218.170336 
L 365.972727 218.166197 
L 368.509091 218.163601 
L 371.045455 218.161945 
L 373.581818 218.160825 
" style="fill:none;stroke:#d62728;stroke-linecap:square;stroke-width:1.5;"/>
   </g>
   <g id="patch_3">
    <path d="M 54 384.48 
L 54 51.84 
" style="fill:none;stroke:#000000;stroke-linecap:square;stroke-linejoin:miter;stroke-width:0.8;"/>
   </g>
   <g id="patch_4">
    <path d="M 388.8 384.48 
L 388.8 51.84 
" style="fill:none;stroke:#000000;stroke-linecap:square;stroke-linejoin:miter;stroke-width:0.8;"/>
   </g>
   <g id="patch_5">
    <path d="M 54 384.48 
L 388.8 384.48 
" style="fill:none;stroke:#000000;stroke-linecap:square;stroke-linejoin:miter;stroke-width:0.8;"/>
   </g>
   <g id="patch_6">
    <path d="M 54 51.84 
L 388.8 51.84 
" style="fill:none;stroke:#000000;stroke-linecap:square;stroke-linejoin:miter;stroke-width:0.8;"/>
   </g>
   <g id="legend_1">
    <g id="patch_7">
     <path d="M 314.498438 118.5525 
L 381.8 118.5525 
Q 383.8 118.5525 383.8 116.5525 
L 383.8 58.84 
Q 383.8 56.84 381.8 56.84 
L 314.498438 56.84 
Q 312.498438 56.84 312.498438 58.84 
L 312.498438 116.5525 
Q 312.498438 118.5525 314.498438 118.5525 
z
" style="fill:#ffffff;opacity:0.8;stroke:#cccccc;stroke-linejoin:miter;"/>
    </g>
    <g id="line2d_17">
     <path d="M 316.498438 64.938438 
L 336.498438 64.938438 
" style="fill:none;stroke:#1f77b4;stroke-linecap:square;stroke-width:1.5;"/>
    </g>
    <g id="line2d_18"/>
    <g id="text_15">
     <!-- state-1 -->
     <g transform="translate(344.498438 68.438438)scale(0.1 -0.1)">
      <defs>
       <path d="M 2834 3397 
L 2834 2853 
Q 2591 2978 2328 3040 
Q 2066 3103 1784 3103 
Q 1356 3103 1142 2972 
Q 928 2841 928 2578 
Q 928 2378 1081 2264 
Q 1234 2150 1697 2047 
L 1894 2003 
Q 2506 1872 2764 1633 
Q 3022 1394 3022 966 
Q 3022 478 2636 193 
Q 2250 -91 1575 -91 
Q 1294 -91 989 -36 
Q 684 19 347 128 
L 347 722 
Q 666 556 975 473 
Q 1284 391 1588 391 
Q 1994 391 2212 530 
Q 2431 669 2431 922 
Q 2431 1156 2273 1281 
Q 2116 1406 1581 1522 
L 1381 1569 
Q 847 1681 609 1914 
Q 372 2147 372 2553 
Q 372 3047 722 3315 
Q 1072 3584 1716 3584 
Q 2034 3584 2315 3537 
Q 2597 3491 2834 3397 
z
" id="DejaVuSans-73" transform="scale(0.015625)"/>
       <path d="M 1172 4494 
L 1172 3500 
L 2356 3500 
L 2356 3053 
L 1172 3053 
L 1172 1153 
Q 1172 725 1289 603 
Q 1406 481 1766 481 
L 2356 481 
L 2356 0 
L 1766 0 
Q 1100 0 847 248 
Q 594 497 594 1153 
L 594 3053 
L 172 3053 
L 172 3500 
L 594 3500 
L 594 4494 
L 1172 4494 
z
" id="DejaVuSans-74" transform="scale(0.015625)"/>
       <path d="M 2194 1759 
Q 1497 1759 1228 1600 
Q 959 1441 959 1056 
Q 959 750 1161 570 
Q 1363 391 1709 391 
Q 2188 391 2477 730 
Q 2766 1069 2766 1631 
L 2766 1759 
L 2194 1759 
z
M 3341 1997 
L 3341 0 
L 2766 0 
L 2766 531 
Q 2569 213 2275 61 
Q 1981 -91 1556 -91 
Q 1019 -91 701 211 
Q 384 513 384 1019 
Q 384 1609 779 1909 
Q 1175 2209 1959 2209 
L 2766 2209 
L 2766 2266 
Q 2766 2663 2505 2880 
Q 2244 3097 1772 3097 
Q 1472 3097 1187 3025 
Q 903 2953 641 2809 
L 641 3341 
Q 956 3463 1253 3523 
Q 1550 3584 1831 3584 
Q 2591 3584 2966 3190 
Q 3341 2797 3341 1997 
z
" id="DejaVuSans-61" transform="scale(0.015625)"/>
       <path d="M 3597 1894 
L 3597 1613 
L 953 1613 
Q 991 1019 1311 708 
Q 1631 397 2203 397 
Q 2534 397 2845 478 
Q 3156 559 3463 722 
L 3463 178 
Q 3153 47 2828 -22 
Q 2503 -91 2169 -91 
Q 1331 -91 842 396 
Q 353 884 353 1716 
Q 353 2575 817 3079 
Q 1281 3584 2069 3584 
Q 2775 3584 3186 3129 
Q 3597 2675 3597 1894 
z
M 3022 2063 
Q 3016 2534 2758 2815 
Q 2500 3097 2075 3097 
Q 1594 3097 1305 2825 
Q 1016 2553 972 2059 
L 3022 2063 
z
" id="DejaVuSans-65" transform="scale(0.015625)"/>
       <path d="M 313 2009 
L 1997 2009 
L 1997 1497 
L 313 1497 
L 313 2009 
z
" id="DejaVuSans-2d" transform="scale(0.015625)"/>
      </defs>
      <use xlink:href="#DejaVuSans-73"/>
      <use x="52.099609" xlink:href="#DejaVuSans-74"/>
      <use x="91.308594" xlink:href="#DejaVuSans-61"/>
      <use x="152.587891" xlink:href="#DejaVuSans-74"/>
      <use x="191.796875" xlink:href="#DejaVuSans-65"/>
      <use x="253.320312" xlink:href="#DejaVuSans-2d"/>
      <use x="289.404297" xlink:href="#DejaVuSans-31"/>
     </g>
    </g>
    <g id="line2d_19">
     <path d="M 316.498438 79.616563 
L 336.498438 79.616563 
" style="fill:none;stroke:#ff7f0e;stroke-linecap:square;stroke-width:1.5;"/>
    </g>
    <g id="line2d_20"/>
    <g id="text_16">
     <!-- state-2 -->
     <g transform="translate(344.498438 83.116563)scale(0.1 -0.1)">
      <use xlink:href="#DejaVuSans-73"/>
      <use x="52.099609" xlink:href="#DejaVuSans-74"/>
      <use x="91.308594" xlink:href="#DejaVuSans-61"/>
      <use x="152.587891" xlink:href="#DejaVuSans-74"/>
      <use x="191.796875" xlink:href="#DejaVuSans-65"/>
      <use x="253.320312" xlink:href="#DejaVuSans-2d"/>
      <use x="289.404297" xlink:href="#DejaVuSans-32"/>
     </g>
    </g>
    <g id="line2d_21">
     <path d="M 316.498438 94.294688 
L 336.498438 94.294688 
" style="fill:none;stroke:#2ca02c;stroke-linecap:square;stroke-width:1.5;"/>
    </g>
    <g id="line2d_22"/>
    <g id="text_17">
     <!-- state-3 -->
     <g transform="translate(344.498438 97.794688)scale(0.1 -0.1)">
      <defs>
       <path d="M 2597 2516 
Q 3050 2419 3304 2112 
Q 3559 1806 3559 1356 
Q 3559 666 3084 287 
Q 2609 -91 1734 -91 
Q 1441 -91 1130 -33 
Q 819 25 488 141 
L 488 750 
Q 750 597 1062 519 
Q 1375 441 1716 441 
Q 2309 441 2620 675 
Q 2931 909 2931 1356 
Q 2931 1769 2642 2001 
Q 2353 2234 1838 2234 
L 1294 2234 
L 1294 2753 
L 1863 2753 
Q 2328 2753 2575 2939 
Q 2822 3125 2822 3475 
Q 2822 3834 2567 4026 
Q 2313 4219 1838 4219 
Q 1578 4219 1281 4162 
Q 984 4106 628 3988 
L 628 4550 
Q 988 4650 1302 4700 
Q 1616 4750 1894 4750 
Q 2613 4750 3031 4423 
Q 3450 4097 3450 3541 
Q 3450 3153 3228 2886 
Q 3006 2619 2597 2516 
z
" id="DejaVuSans-33" transform="scale(0.015625)"/>
      </defs>
      <use xlink:href="#DejaVuSans-73"/>
      <use x="52.099609" xlink:href="#DejaVuSans-74"/>
      <use x="91.308594" xlink:href="#DejaVuSans-61"/>
      <use x="152.587891" xlink:href="#DejaVuSans-74"/>
      <use x="191.796875" xlink:href="#DejaVuSans-65"/>
      <use x="253.320312" xlink:href="#DejaVuSans-2d"/>
      <use x="289.404297" xlink:href="#DejaVuSans-33"/>
     </g>
    </g>
    <g id="line2d_23">
     <path d="M 316.498438 108.972813 
L 336.498438 108.972813 
" style="fill:none;stroke:#d62728;stroke-linecap:square;stroke-width:1.5;"/>
    </g>
    <g id="line2d_24"/>
    <g id="text_18">
     <!-- state-4 -->
     <g transform="translate(344.498438 112.472813)scale(0.1 -0.1)">
      <use xlink:href="#DejaVuSans-73"/>
      <use x="52.099609" xlink:href="#DejaVuSans-74"/>
      <use x="91.308594" xlink:href="#DejaVuSans-61"/>
      <use x="152.587891" xlink:href="#DejaVuSans-74"/>
      <use x="191.796875" xlink:href="#DejaVuSans-65"/>
      <use x="253.320312" xlink:href="#DejaVuSans-2d"/>
      <use x="289.404297" xlink:href="#DejaVuSans-34"/>
     </g>
    </g>
   </g>
  </g>
 </g>
 <defs>
  <clipPath id="p8d4ea5da45">
   <rect height="332.64" width="334.8" x="54" y="51.84"/>
  </clipPath>
 </defs>
</svg>
